<?xml version="1.0" encoding="utf-8"?>
<!-- Generator: Adobe Illustrator 16.0.0, SVG Export Plug-In . SVG Version: 6.00 Build 0)  -->
<!DOCTYPE svg PUBLIC "-//W3C//DTD SVG 1.1//EN" "http://www.w3.org/Graphics/SVG/1.1/DTD/svg11.dtd">
<svg version="1.1" id="Layer_1" xmlns="http://www.w3.org/2000/svg" xmlns:xlink="http://www.w3.org/1999/xlink" x="0px" y="0px"
	 width="970px" height="260px" viewBox="0 0 970 260" enable-background="new 0 0 970 260" xml:space="preserve">
<path fill="#9FC73E" d="M66.623,119.184c3.059-3.473,7.538-5.663,12.529-5.663s9.465,2.19,12.524,5.663
	c-3.059,3.471-7.533,5.665-12.524,5.665S69.682,122.655,66.623,119.184"/>
<path fill="#9FC73E" d="M130.83,60.328c-3.532-2.987-5.814-7.417-5.914-12.411c-0.101-4.987,1.999-9.508,5.407-12.635
	c3.534,2.987,5.82,7.42,5.919,12.407C136.341,52.681,134.238,57.202,130.83,60.328"/>
<path fill="#9FC73E" d="M61.619,80.799c4.49-1.119,9.42-0.386,13.527,2.45c4.108,2.834,6.549,7.179,7.096,11.775
	c-4.49,1.12-9.42,0.385-13.526-2.449C64.604,89.741,62.166,85.396,61.619,80.799"/>
<path fill="#9FC73E" d="M88.098,76.769c4.624,0.174,9.152,2.256,12.308,6.125c3.154,3.868,4.284,8.72,3.529,13.285
	c-4.624-0.174-9.152-2.256-12.306-6.123C88.473,86.188,87.343,81.332,88.098,76.769"/>
<path fill="#9FC73E" d="M103.823,72.182c4.507-1.048,9.424-0.235,13.489,2.664c4.06,2.898,6.431,7.284,6.906,11.887
	c-4.503,1.048-9.423,0.231-13.488-2.667C106.668,81.17,104.299,76.785,103.823,72.182"/>
<path fill="#9FC73E" d="M105.512,52.421c4.507-1.05,9.423-0.237,13.488,2.662c4.06,2.898,6.431,7.284,6.906,11.887
	c-4.507,1.05-9.423,0.237-13.488-2.662C108.357,61.41,105.986,57.024,105.512,52.421"/>
<path fill="#9FC73E" d="M48.178,104.16c3.059-3.473,7.533-5.667,12.525-5.667c4.991,0,9.465,2.193,12.527,5.667
	c-3.062,3.471-7.536,5.661-12.527,5.661C55.711,109.821,51.237,107.631,48.178,104.16"/>
<path fill="#9FC73E" d="M89.724,158.958c-2.136-4.105-2.566-9.073-0.766-13.726c1.8-4.654,5.458-8.039,9.798-9.645
	c2.134,4.105,2.566,9.074,0.77,13.729C97.725,153.972,94.067,157.356,89.724,158.958"/>
<path fill="#9FC73E" d="M60.704,143.092c1.231-4.461,4.293-8.392,8.778-10.578c4.486-2.188,9.474-2.178,13.74-0.4
	c-1.226,4.464-4.289,8.395-8.777,10.585C69.96,144.885,64.976,144.874,60.704,143.092"/>
<path fill="#FFFFFF" d="M260.283,129.692c0,71.635-58.07,129.708-129.706,129.708c-71.633,0-129.702-58.072-129.702-129.708
	c0-71.634,58.069-129.706,129.702-129.706C202.213-0.014,260.283,58.058,260.283,129.692 M130.577,17.938
	c-61.723,0-111.754,50.035-111.754,111.754c0,61.723,50.031,111.759,111.754,111.759c61.723,0,111.756-50.036,111.756-111.759
	C242.333,67.973,192.3,17.938,130.577,17.938"/>
<path fill="#FFFFFF" d="M101.834,215.087v-23.714l8.624,15.09h7.905v-42.4c0,0,2.153-40.06-27.845-33.053
	c0,0,3.95-7.007,12.935-5.388c0,0-7.904-16.528-17.605-27.128c0,0,13.292,5.929,18.504,14.016c0,0,2.331-8.447,11.495-9.883
	c0,0-8.621,12.037-5.569,18.504c3.055,6.467,15.629,15.447,15.629,41.678v52.278H101.834z"/>
<path fill="#FFFFFF" d="M159.321,215.087v-23.714l-8.621,15.09h-7.907v-42.4c0,0-2.153-40.06,27.844-33.053
	c0,0-3.95-7.007-12.935-5.388c0,0,7.909-16.528,17.605-27.128c0,0-13.292,5.929-18.504,14.016c0,0-2.331-8.447-11.495-9.883
	c0,0,8.623,12.037,5.569,18.504c-3.056,6.467-15.63,15.447-15.63,41.678v52.278H159.321z"/>
<path fill="#FFFFFF" d="M130.577,140.532l2.875-24.612c5.661,4.222,10.958,3.146,10.958,3.146
	c-10.689-5.48-11.915-18.237-11.915-18.237l-1.918-34.969l-1.918,34.969c0,0-1.225,12.757-11.915,18.237
	c0,0,5.301,1.076,10.959-3.146L130.577,140.532z"/>
<path fill="#9FC73E" d="M182.006,124.847c-4.991,0-9.469-2.192-12.529-5.665c3.061-3.473,7.538-5.661,12.529-5.661
	c4.988,0,9.467,2.188,12.526,5.661C191.473,122.655,186.994,124.847,182.006,124.847"/>
<path fill="#9FC73E" d="M192.441,92.575c-4.107,2.834-9.039,3.569-13.527,2.449c0.545-4.596,2.984-8.943,7.094-11.777
	c4.108-2.834,9.039-3.569,13.528-2.449C198.987,85.394,196.548,89.739,192.441,92.575"/>
<path fill="#9FC73E" d="M169.528,90.054c-3.155,3.865-7.683,5.949-12.308,6.126c-0.756-4.568,0.376-9.42,3.53-13.288
	c3.155-3.865,7.683-5.947,12.308-6.125C173.813,81.334,172.684,86.186,169.528,90.054"/>
<path fill="#9FC73E" d="M150.423,84.067c-4.062,2.899-8.981,3.715-13.487,2.664c0.477-4.603,2.845-8.984,6.91-11.883
	c4.06-2.898,8.981-3.715,13.483-2.664C156.859,76.783,154.488,81.168,150.423,84.067"/>
<path fill="#9FC73E" d="M148.736,64.308c-4.065,2.898-8.981,3.715-13.488,2.662c0.476-4.603,2.847-8.988,6.906-11.887
	c4.065-2.898,8.981-3.711,13.488-2.662C155.169,57.024,152.798,61.41,148.736,64.308"/>
<path fill="#9FC73E" d="M200.451,109.823c-4.991,0-9.465-2.193-12.526-5.663c3.061-3.471,7.535-5.665,12.526-5.665
	c4.991,0,9.467,2.193,12.529,5.665C209.918,107.63,205.442,109.823,200.451,109.823"/>
<path fill="#9FC73E" d="M161.631,149.313c-1.796-4.651-1.365-9.62,0.766-13.726c4.344,1.605,8.001,4.99,9.801,9.642
	c1.802,4.655,1.37,9.623-0.766,13.729C167.09,157.356,163.431,153.972,161.631,149.313"/>
<path fill="#9FC73E" d="M186.708,142.698c-4.485-2.187-7.548-6.121-8.778-10.585c4.271-1.779,9.255-1.789,13.745,0.4
	c4.484,2.184,7.548,6.117,8.774,10.578C196.182,144.874,191.193,144.881,186.708,142.698"/>
<path fill="#9FC73E" d="M331.375,53.732h-11.499v21.795h-13.65v11.499h13.65v22.635c0,9.446,7.684,17.129,17.128,17.129h21.439
	v-11.499h-21.439c-3.106,0-5.63-2.524-5.63-5.63V87.026h27.069V75.528h-27.069V53.732z"/>
<path fill="#9FC73E" d="M389.582,68.105h-10.75h-6.376c0,0,5.322,6.598,5.628,10.517v48.168h11.499V92.016
	c1.262-2.681,6.447-11.455,20.12-11.455V69.063c-8.859,0-15.384,2.568-20.12,5.861V68.105z"/>
<path fill="#9FC73E" d="M456.05,69.063h-3.593c-15.652,0-28.383,12.731-28.383,28.383v0.959c0,15.652,12.731,28.383,28.383,28.383
	h24.792v-11.495h-24.792c-7.648,0-14.125-5.113-16.194-12.097h48.172v-5.75C484.435,81.793,471.702,69.063,456.05,69.063
	 M436.577,91.699c2.357-6.49,8.586-11.138,15.88-11.138h3.593c7.294,0,13.525,4.648,15.879,11.138H436.577z"/>
<path fill="#9FC73E" d="M952.236,97.446c0-15.652-12.729-28.383-28.387-28.383h-3.593c-15.65,0-28.384,12.731-28.384,28.383v0.959
	c0,15.652,12.733,28.383,28.384,28.383h24.794v-11.495h-24.794c-7.649,0-14.126-5.113-16.193-12.097h48.173V97.446z M904.377,91.699
	c2.356-6.49,8.586-11.138,15.88-11.138h3.593c7.295,0,13.523,4.648,15.881,11.138H904.377z"/>
<path fill="#9FC73E" d="M536.056,69.063h-3.597c-15.65,0-28.383,12.731-28.383,28.383v0.959c0,15.652,12.732,28.383,28.383,28.383
	h24.793v-11.495h-24.793c-7.649,0-14.125-5.113-16.193-12.097h48.174v-5.75C564.439,81.793,551.709,69.063,536.056,69.063
	 M516.582,91.699c2.354-6.49,8.582-11.138,15.877-11.138h3.597c7.291,0,13.52,4.648,15.877,11.138H516.582z"/>
<path fill="#9FC73E" d="M617.372,69.229c-6.866,0-13.182,2.378-18.199,6.326V53.732h-11.5v73.056h11.5V96.415
	c1.152-9.023,8.868-16.025,18.199-16.025c10.132,0,18.373,8.243,18.373,18.375v28.023h11.163V98.765
	C646.908,82.479,633.66,69.229,617.372,69.229"/>
<path fill="#9FC73E" d="M700.851,69.231h-6.466c-15.824,0-28.7,12.87-28.7,28.693s12.876,28.698,28.7,28.698h6.466
	c15.821,0,28.693-12.875,28.693-28.698S716.672,69.231,700.851,69.231 M700.851,115.458h-6.466c-9.669,0-17.53-7.864-17.53-17.534
	c0-9.666,7.861-17.534,17.53-17.534h6.466c9.665,0,17.53,7.869,17.53,17.534C718.381,107.595,710.516,115.458,700.851,115.458"/>
<path fill="#9FC73E" d="M794.552,97.567c0,9.864-8.025,17.893-17.893,17.893c-9.864,0-17.89-8.029-17.89-17.893V68.103h-11.166
	v29.464c0,16.018,13.035,29.054,29.056,29.054c16.022,0,29.055-13.036,29.055-29.054V68.103h-11.162V97.567z"/>
<path fill="#9FC73E" d="M824.972,86.368c0,9.452,7.688,17.138,17.141,17.138h16.169c3.294,0,5.975,2.681,5.975,5.976
	c0,3.297-2.681,5.979-5.975,5.979h-34.674v11.164h34.674c9.45,0,17.138-7.691,17.138-17.143c0-9.448-7.688-17.139-17.138-17.139
	h-16.169c-3.297,0-5.975-2.681-5.975-5.975c0-3.295,2.678-5.976,5.975-5.976h35.151V69.229h-35.151
	C832.659,69.229,824.972,76.919,824.972,86.368"/>
<path fill="#FFFFFF" d="M398.771,159.762c-12.019,0-21.797,9.78-21.797,21.8c0,12.019,9.779,21.796,21.797,21.796
	c12.022,0,21.803-9.777,21.803-21.796C420.574,169.542,410.794,159.762,398.771,159.762 M398.771,196.269
	c-8.11,0-14.71-6.595-14.71-14.707s6.6-14.714,14.71-14.714c8.111,0,14.711,6.602,14.711,14.714S406.882,196.269,398.771,196.269"/>
<path fill="#FFFFFF" d="M329.479,170.135c3.052-2.473,6.889-3.607,10.797-3.204c3.907,0.407,7.418,2.315,9.894,5.369l5.512-4.464
	c-3.668-4.526-8.879-7.35-14.669-7.955c-5.785-0.603-11.472,1.079-15.997,4.745c-4.525,3.663-7.348,8.872-7.954,14.665
	c-0.606,5.794,1.076,11.469,4.746,15.995c3.665,4.526,8.873,7.347,14.667,7.952c0.774,0.088,1.544,0.126,2.31,0.126
	c4.977,0,9.766-1.688,13.688-4.867l-4.467-5.509c-3.053,2.473-6.868,3.614-10.797,3.203c-3.903-0.41-7.419-2.318-9.894-5.365
	c-2.474-3.054-3.612-6.891-3.201-10.797C324.52,176.123,326.428,172.606,329.479,170.135"/>
<path fill="#FFFFFF" d="M626.149,187.707c0,5.083-4.133,9.216-9.216,9.216c-5.084,0-9.217-4.133-9.217-9.216v-27.472h-7.089v27.472
	c0,8.993,7.312,16.305,16.306,16.305c8.993,0,16.305-7.312,16.305-16.305v-27.472h-7.089V187.707z"/>
<polygon fill="#FFFFFF" points="472.218,192.052 457.438,160.232 449.986,160.232 449.986,202.146 457.074,202.146 457.074,176.276 
	469.087,202.146 475.348,202.146 487.359,176.283 487.359,202.146 494.448,202.146 494.448,160.232 486.994,160.232 "/>
<polygon fill="#FFFFFF" points="547.744,192.052 532.964,160.232 525.513,160.232 525.513,202.146 532.602,202.146 532.602,176.276 
	544.613,202.146 550.874,202.146 562.886,176.283 562.886,202.146 569.975,202.146 569.975,160.232 562.527,160.232 "/>
<polygon fill="#FFFFFF" points="690.517,189.646 667.342,160.232 662.753,160.232 662.753,202.146 669.842,202.146 669.842,174.862 
	691.338,202.146 697.605,202.146 697.605,160.232 690.517,160.232 "/>
<rect x="728.562" y="160.232" fill="#FFFFFF" width="7.089" height="41.913"/>
<rect x="824.07" y="160.232" fill="#FFFFFF" width="7.088" height="41.913"/>
<polygon fill="#FFFFFF" points="795.986,160.239 795.986,167.314 783.41,167.314 783.41,202.139 776.314,202.139 776.314,167.314 
	763.244,167.314 763.244,160.239 "/>
<polygon fill="#FFFFFF" points="868.194,167.317 868.194,177.647 883.618,177.647 883.618,184.729 868.194,184.729 868.194,195.92 
	886.599,195.92 886.599,203.02 861.115,203.02 861.115,160.239 886.599,160.239 886.599,167.317 "/>
<path fill="#FFFFFF" d="M932.095,177.021c-3.401-1.957-7.632-4.395-7.632-6.246c0-0.725,0.254-4.332,5.33-4.332
	c3.569,0,5.934,2.42,5.934,3.398h7.085c0-5.585-6.083-10.487-13.019-10.487c-8.154,0-12.419,5.745-12.419,11.421
	c0,5.95,5.686,9.223,11.184,12.391c4.112,2.364,8.771,5.049,8.771,7.9c0,3.639-4.784,4.864-6.971,4.864
	c-3.158,0-7.162-2.921-7.162-6.201h-7.085c0,7.604,7.521,13.29,14.247,13.29c6.911,0,14.06-4.475,14.06-11.953
	C944.417,184.117,937.871,180.347,932.095,177.021"/>
<path fill="#FFFFFF" d="M954.97,195.517h-1.978c-0.143,0-0.247-0.119-0.247-0.24v-1.065c0-0.126,0.104-0.248,0.247-0.248h5.647
	c0.14,0,0.247,0.122,0.247,0.248v1.065c0,0.121-0.107,0.24-0.247,0.24h-1.981v7.256c0,0.125-0.114,0.243-0.24,0.243h-1.204
	c-0.129,0-0.244-0.118-0.244-0.243V195.517z"/>
<path fill="#FFFFFF" d="M961.537,194.026c0.014-0.098,0.09-0.188,0.232-0.188h0.206c0.101,0,0.181,0.049,0.223,0.125l2.841,6.107
	h0.038l2.849-6.107c0.038-0.076,0.101-0.125,0.223-0.125h0.202c0.143,0,0.223,0.091,0.236,0.188l1.525,8.693
	c0.034,0.178-0.066,0.296-0.233,0.296h-1.181c-0.111,0-0.219-0.104-0.24-0.191l-0.763-4.902h-0.045l-2.263,5.084
	c-0.021,0.072-0.102,0.143-0.216,0.143h-0.237c-0.114,0-0.178-0.07-0.22-0.143l-2.283-5.084h-0.042l-0.752,4.902
	c-0.011,0.087-0.115,0.191-0.229,0.191h-1.167c-0.167,0-0.269-0.118-0.243-0.296L961.537,194.026z"/>
</svg>
