<?xml version="1.0" encoding="UTF-8" standalone="no"?>
<!-- Generator: Adobe Illustrator 16.0.0, SVG Export Plug-In . SVG Version: 6.00 Build 0)  -->

<svg
   version="1.1"
   id="Layer_1"
   x="0px"
   y="0px"
   width="259.40799"
   height="259.414"
   viewBox="0 0 259.40799 259.414"
   enable-background="new 0 0 970 260"
   xml:space="preserve"
   sodipodi:docname="logo-no-text.svg"
   inkscape:version="1.1.2 (b8e25be833, 2022-02-05)"
   xmlns:inkscape="http://www.inkscape.org/namespaces/inkscape"
   xmlns:sodipodi="http://sodipodi.sourceforge.net/DTD/sodipodi-0.dtd"
   xmlns="http://www.w3.org/2000/svg"
   xmlns:svg="http://www.w3.org/2000/svg"><defs
   id="defs91" /><sodipodi:namedview
   id="namedview89"
   pagecolor="#505050"
   bordercolor="#eeeeee"
   borderopacity="1"
   inkscape:pageshadow="0"
   inkscape:pageopacity="0"
   inkscape:pagecheckerboard="0"
   showgrid="false"
   inkscape:zoom="1.0907216"
   inkscape:cx="435.03308"
   inkscape:cy="130.18904"
   inkscape:window-width="1920"
   inkscape:window-height="1017"
   inkscape:window-x="-8"
   inkscape:window-y="-8"
   inkscape:window-maximized="1"
   inkscape:current-layer="Layer_1" />
<path
   fill="#9fc73e"
   d="m 65.748,119.198 c 3.059,-3.473 7.538,-5.663 12.529,-5.663 4.991,0 9.465,2.19 12.524,5.663 -3.059,3.471 -7.533,5.665 -12.524,5.665 -4.991,0 -9.47,-2.194 -12.529,-5.665"
   id="path2" />
<path
   fill="#9fc73e"
   d="m 129.955,60.342 c -3.532,-2.987 -5.814,-7.417 -5.914,-12.411 -0.101,-4.987 1.999,-9.508 5.407,-12.635 3.534,2.987 5.82,7.42 5.919,12.407 0.099,4.992 -2.004,9.513 -5.412,12.639"
   id="path4" />
<path
   fill="#9fc73e"
   d="m 60.744,80.813 c 4.49,-1.119 9.42,-0.386 13.527,2.45 4.108,2.834 6.549,7.179 7.096,11.775 -4.49,1.12 -9.42,0.385 -13.526,-2.449 -4.112,-2.834 -6.55,-7.179 -7.097,-11.776"
   id="path6" />
<path
   fill="#9fc73e"
   d="m 87.223,76.783 c 4.624,0.174 9.152,2.256 12.308,6.125 3.154,3.868 4.284,8.72 3.529,13.285 C 98.436,96.019 93.908,93.937 90.754,90.07 87.598,86.202 86.468,81.346 87.223,76.783"
   id="path8" />
<path
   fill="#9fc73e"
   d="m 102.948,72.196 c 4.507,-1.048 9.424,-0.235 13.489,2.664 4.06,2.898 6.431,7.284 6.906,11.887 -4.503,1.048 -9.423,0.231 -13.488,-2.667 -4.062,-2.896 -6.431,-7.281 -6.907,-11.884"
   id="path10" />
<path
   fill="#9fc73e"
   d="m 104.637,52.435 c 4.507,-1.05 9.423,-0.237 13.488,2.662 4.06,2.898 6.431,7.284 6.906,11.887 -4.507,1.05 -9.423,0.237 -13.488,-2.662 -4.061,-2.898 -6.432,-7.284 -6.906,-11.887"
   id="path12" />
<path
   fill="#9fc73e"
   d="m 47.303,104.174 c 3.059,-3.473 7.533,-5.667 12.525,-5.667 4.991,0 9.465,2.193 12.527,5.667 -3.062,3.471 -7.536,5.661 -12.527,5.661 -4.992,0 -9.466,-2.19 -12.525,-5.661"
   id="path14" />
<path
   fill="#9fc73e"
   d="m 88.849,158.972 c -2.136,-4.105 -2.566,-9.073 -0.766,-13.726 1.8,-4.654 5.458,-8.039 9.798,-9.645 2.134,4.105 2.566,9.074 0.77,13.729 -1.801,4.656 -5.459,8.04 -9.802,9.642"
   id="path16" />
<path
   fill="#9fc73e"
   d="m 59.829,143.106 c 1.231,-4.461 4.293,-8.392 8.778,-10.578 4.486,-2.188 9.474,-2.178 13.74,-0.4 -1.226,4.464 -4.289,8.395 -8.777,10.585 -4.485,2.186 -9.469,2.175 -13.741,0.393"
   id="path18" />
<path
   fill="#ffffff"
   d="m 259.408,129.706 c 0,71.635 -58.07,129.708 -129.706,129.708 C 58.069,259.414 0,201.342 0,129.706 0,58.072 58.069,0 129.702,0 201.338,0 259.408,58.072 259.408,129.706 M 129.702,17.952 c -61.723,0 -111.754,50.035 -111.754,111.754 0,61.723 50.031,111.759 111.754,111.759 61.723,0 111.756,-50.036 111.756,-111.759 0,-61.719 -50.033,-111.754 -111.756,-111.754"
   id="path20" />
<path
   fill="#ffffff"
   d="m 100.959,215.101 v -23.714 l 8.624,15.09 h 7.905 v -42.4 c 0,0 2.153,-40.06 -27.845,-33.053 0,0 3.95,-7.007 12.935,-5.388 0,0 -7.904,-16.528 -17.605,-27.128 0,0 13.292,5.929 18.504,14.016 0,0 2.331,-8.447 11.495,-9.883 0,0 -8.621,12.037 -5.569,18.504 3.055,6.467 15.629,15.447 15.629,41.678 v 52.278 z"
   id="path22" />
<path
   fill="#ffffff"
   d="m 158.446,215.101 v -23.714 l -8.621,15.09 h -7.907 v -42.4 c 0,0 -2.153,-40.06 27.844,-33.053 0,0 -3.95,-7.007 -12.935,-5.388 0,0 7.909,-16.528 17.605,-27.128 0,0 -13.292,5.929 -18.504,14.016 0,0 -2.331,-8.447 -11.495,-9.883 0,0 8.623,12.037 5.569,18.504 -3.056,6.467 -15.63,15.447 -15.63,41.678 v 52.278 z"
   id="path24" />
<path
   fill="#ffffff"
   d="m 129.702,140.546 2.875,-24.612 c 5.661,4.222 10.958,3.146 10.958,3.146 -10.689,-5.48 -11.915,-18.237 -11.915,-18.237 l -1.918,-34.969 -1.918,34.969 c 0,0 -1.225,12.757 -11.915,18.237 0,0 5.301,1.076 10.959,-3.146 z"
   id="path26" />
<path
   fill="#9fc73e"
   d="m 181.131,124.861 c -4.991,0 -9.469,-2.192 -12.529,-5.665 3.061,-3.473 7.538,-5.661 12.529,-5.661 4.988,0 9.467,2.188 12.526,5.661 -3.059,3.473 -7.538,5.665 -12.526,5.665"
   id="path28" />
<path
   fill="#9fc73e"
   d="m 191.566,92.589 c -4.107,2.834 -9.039,3.569 -13.527,2.449 0.545,-4.596 2.984,-8.943 7.094,-11.777 4.108,-2.834 9.039,-3.569 13.528,-2.449 -0.549,4.596 -2.988,8.941 -7.095,11.777"
   id="path30" />
<path
   fill="#9fc73e"
   d="m 168.653,90.068 c -3.155,3.865 -7.683,5.949 -12.308,6.126 -0.756,-4.568 0.376,-9.42 3.53,-13.288 3.155,-3.865 7.683,-5.947 12.308,-6.125 0.755,4.567 -0.374,9.419 -3.53,13.287"
   id="path32" />
<path
   fill="#9fc73e"
   d="m 149.548,84.081 c -4.062,2.899 -8.981,3.715 -13.487,2.664 0.477,-4.603 2.845,-8.984 6.91,-11.883 4.06,-2.898 8.981,-3.715 13.483,-2.664 -0.47,4.599 -2.841,8.984 -6.906,11.883"
   id="path34" />
<path
   fill="#9fc73e"
   d="m 147.861,64.322 c -4.065,2.898 -8.981,3.715 -13.488,2.662 0.476,-4.603 2.847,-8.988 6.906,-11.887 4.065,-2.898 8.981,-3.711 13.488,-2.662 -0.473,4.603 -2.844,8.989 -6.906,11.887"
   id="path36" />
<path
   fill="#9fc73e"
   d="m 199.576,109.837 c -4.991,0 -9.465,-2.193 -12.526,-5.663 3.061,-3.471 7.535,-5.665 12.526,-5.665 4.991,0 9.467,2.193 12.529,5.665 -3.062,3.47 -7.538,5.663 -12.529,5.663"
   id="path38" />
<path
   fill="#9fc73e"
   d="m 160.756,149.327 c -1.796,-4.651 -1.365,-9.62 0.766,-13.726 4.344,1.605 8.001,4.99 9.801,9.642 1.802,4.655 1.37,9.623 -0.766,13.729 -4.342,-1.602 -8.001,-4.986 -9.801,-9.645"
   id="path40" />
<path
   fill="#9fc73e"
   d="m 185.833,142.712 c -4.485,-2.187 -7.548,-6.121 -8.778,-10.585 4.271,-1.779 9.255,-1.789 13.745,0.4 4.484,2.184 7.548,6.117 8.774,10.578 -4.267,1.783 -9.256,1.79 -13.741,-0.393"
   id="path42" />






















</svg>
