<?xml version="1.0" encoding="utf-8"?>
<!-- Generator: Adobe Illustrator 24.0.0, SVG Export Plug-In . SVG Version: 6.00 Build 0)  -->
<svg version="1.1" id="Layer_1" xmlns="http://www.w3.org/2000/svg" xmlns:xlink="http://www.w3.org/1999/xlink" x="0px" y="0px"
	 viewBox="0 0 300 84.6" style="enable-background:new 0 0 300 84.6;" xml:space="preserve">
<style type="text/css">
	.st0{fill:#FFFFFF;}
</style>
<g>
	<path class="st0" d="M57.6,69.6V12.8L28.5,0L0,12.8v56.8h21.6v15h5v-15H31v15h5v-15H57.6z M4.9,64.6V16L28.5,5.4L52.7,16v48.6H38.6
		l7-7L42,54.1l-6.1,6.1V25.8h-5v20.4L26.5,38V25.8h-5v22.5l-5.2-5.2l-3.5,3.5l8.7,8.7v9.3H4.9z M26.5,64.6V48.4l4.4,8.1v8.1H26.5z"
		/>
	<rect x="0" y="73.9" class="st0" width="16.8" height="4.4"/>
	<rect x="40.9" y="73.9" class="st0" width="16.8" height="4.4"/>
</g>
<g>
	<path class="st0" d="M76.2,23l8.3,0l6,16.9L96.6,23l8.1,0L93.8,49.8l-6.8,0L76.2,23z"/>
	<path class="st0" d="M106.6,23l7.4,0l0,26.6l-7.4,0L106.6,23z"/>
	<path class="st0" d="M118.2,23l6.9,0L136,37.1l0-14.1l7.3,0l0,26.6l-6.5,0l-11.4-14.6l0,14.6l-7.3,0L118.2,23z"/>
	<path class="st0" d="M147.2,23.1l21.4,0l0,6.3l-14.1,0l0,4l12.8,0l0,5.8l-12.8,0l0,4.2l14.3,0l0,6.3l-21.6,0L147.2,23.1z"/>
	<path class="st0" d="M179.5,39.8l-10.1-16.7l8.4,0l5.5,9.7l5.5-9.7l8.3,0l-10.1,16.5l0,10.1l-7.4,0L179.5,39.8z"/>
	<path class="st0" d="M203.6,22.9l7.1,0L222,49.8l-7.9,0l-1.9-4.8l-10.3,0l-1.9,4.8l-7.8,0L203.6,22.9z M210,39.3l-3-7.6l-3,7.6
		L210,39.3z"/>
	<path class="st0" d="M223.9,23.1l12.6,0c4.1,0,6.9,1.1,8.7,2.9c1.6,1.5,2.4,3.6,2.4,6.2l0,0.1c0,4.1-2.2,6.8-5.5,8.2l6.3,9.3
		l-8.5,0l-5.4-8.1l-0.1,0l-3.2,0l0,8.1l-7.4,0L223.9,23.1z M236.1,35.9c2.5,0,4-1.2,4-3.2l0-0.1c0-2.1-1.5-3.2-4-3.2l-4.8,0l0,6.4
		L236.1,35.9z"/>
	<path class="st0" d="M250.4,23.2l10.3,0c9.5,0,15,5.5,15,13.2l0,0.1c0,7.7-5.6,13.4-15.2,13.4l-10.1,0L250.4,23.2z M260.8,43.3
		c4.4,0,7.3-2.4,7.3-6.7l0-0.1c0-4.3-2.9-6.7-7.3-6.7l-3,0l0,13.5L260.8,43.3z"/>
	<path class="st0" d="M276.4,45.9l4.1-4.9c2.6,2.1,5.5,3.2,8.6,3.2c2,0,3-0.7,3-1.8l0-0.1c0-1.1-0.9-1.7-4.5-2.6
		c-5.7-1.3-10-2.9-10-8.4l0-0.1c0-4.9,3.9-8.5,10.3-8.5c4.5,0,8.1,1.2,10.9,3.5l-3.7,5.2c-2.4-1.7-5.1-2.6-7.5-2.6
		c-1.8,0-2.7,0.8-2.7,1.7l0,0.1c0,1.2,0.9,1.8,4.6,2.6c6.1,1.3,9.9,3.3,9.9,8.3l0,0.1c0,5.4-4.3,8.7-10.8,8.7
		C284.1,50.3,279.6,48.8,276.4,45.9z"/>
	<path class="st0" d="M83.4,66.5L83.4,66.5l-3.8-5.4l0,8.2l-1.1,0l0-10.2l1.2,0l3.7,5.6l3.7-5.6l1.2,0l0,10.2l-1.1,0l0-8.2
		L83.4,66.5z"/>
	<path class="st0" d="M104.1,69.3l-1.2,0l-1.2-2.7l-5.5,0l-1.2,2.7l-1.2,0l4.6-10.2l1.1,0L104.1,69.3z M98.9,60.4l-2.3,5.2l4.6,0
		L98.9,60.4z"/>
	<path class="st0" d="M117.1,59.2l1.1,0l0,10.2l-0.9,0l-6.6-8.4l0,8.3l-1.1,0l0-10.2l1.1,0l6.4,8.2L117.1,59.2z"/>
	<path class="st0" d="M134,69.4l-1.2,0l-1.2-2.7l-5.5,0l-1.2,2.7l-1.2,0l4.6-10.2l1.1,0L134,69.4z M128.9,60.4l-2.3,5.2l4.6,0
		L128.9,60.4z"/>
	<path class="st0" d="M143.7,69.5c-3.2,0-5.2-2.3-5.2-5.3c0-2.8,2.1-5.3,5.1-5.3c1.7,0,2.8,0.5,3.8,1.4l-0.7,0.9
		c-0.8-0.7-1.7-1.2-3.1-1.2c-2.3,0-3.9,1.9-3.9,4.2c0,2.4,1.6,4.2,4,4.2c1.2,0,2.2-0.4,2.9-1l0-2.5l-3.1,0l0-1l4.2,0l0,4.1
		C146.8,68.8,145.4,69.5,143.7,69.5z"/>
	<path class="st0" d="M161.2,60.3l-6.2,0l0,3.5l5.6,0l0,1l-5.6,0l0,3.6l6.3,0l0,1l-7.4,0l0-10.2l7.4,0L161.2,60.3z"/>
	<path class="st0" d="M171.9,66.6L171.9,66.6l-3.8-5.4l0,8.2l-1.1,0l0-10.2l1.2,0l3.7,5.6l3.7-5.6l1.2,0l0,10.2l-1.1,0l0-8.2
		L171.9,66.6z"/>
	<path class="st0" d="M190.5,60.3l-6.2,0l0,3.5l5.6,0l0,1l-5.6,0l0,3.6l6.3,0l0,1l-7.4,0l0-10.2l7.4,0L190.5,60.3z"/>
	<path class="st0" d="M203.9,59.2l1.1,0l0,10.2l-0.9,0l-6.6-8.4l0,8.3l-1.1,0l0-10.2l1.1,0l6.4,8.2L203.9,59.2z"/>
	<path class="st0" d="M215.2,69.4l-1.2,0l0-9.1l-3.4,0l0-1.1l8,0l0,1.1l-3.4,0L215.2,69.4z"/>
	<path class="st0" d="M236.9,69.6c-3.2,0-5.2-2.3-5.2-5.3c0-2.8,2.1-5.3,5.1-5.3c1.7,0,2.8,0.5,3.8,1.4l-0.7,0.9
		c-0.8-0.7-1.7-1.2-3.1-1.2c-2.3,0-3.9,1.9-3.9,4.2c0,2.4,1.6,4.2,4,4.2c1.2,0,2.2-0.4,2.9-1l0-2.5l-3.1,0l0-1l4.2,0l0,4.1
		C240,68.9,238.6,69.6,236.9,69.6z"/>
	<path class="st0" d="M254,69.5l-2.9-4l-2.9,0l0,4l-1.1,0l0-10.2l4.4,0c2.2,0,3.7,1.2,3.7,3c0,1.7-1.2,2.7-2.8,3l3.1,4.2L254,69.5z
		 M251.3,60.4l-3.1,0l0,4.1l3.1,0c1.5,0,2.6-0.8,2.6-2.1C253.9,61.1,253,60.4,251.3,60.4z"/>
	<path class="st0" d="M265.8,69.7c-3.1,0-5.2-2.4-5.2-5.3s2.1-5.3,5.2-5.3c3.1,0,5.2,2.4,5.2,5.3C271,67.2,268.9,69.7,265.8,69.7z
		 M265.8,60.2c-2.3,0-4,1.9-4,4.2c0,2.3,1.7,4.2,4,4.2s4-1.9,4-4.2C269.8,62.1,268.1,60.2,265.8,60.2z"/>
	<path class="st0" d="M285.2,65.2c0,3-1.7,4.5-4.2,4.5c-2.5,0-4.2-1.5-4.2-4.4l0-5.9l1.1,0l0,5.8c0,2.2,1.2,3.4,3.1,3.4
		c1.9,0,3.1-1.1,3.1-3.4l0-5.9l1.1,0L285.2,65.2z"/>
	<path class="st0" d="M295,65.9l-2.5,0l0,3.6l-1.1,0l0-10.2l3.8,0c2.3,0,3.8,1.2,3.8,3.2C299,64.8,297.2,65.9,295,65.9z M295.1,60.4
		l-2.6,0l0,4.5l2.5,0c1.7,0,2.8-0.9,2.8-2.3C297.9,61.1,296.8,60.4,295.1,60.4z"/>
</g>
</svg>
